<mxfile host="app.diagrams.net" modified="2023-05-30T13:31:53.993Z" agent="Mozilla/5.0 (Macintosh; Intel Mac OS X 10_15_7) AppleWebKit/537.36 (KHTML, like Gecko) Chrome/113.0.0.0 Safari/537.36" version="21.3.5" etag="fDlpc6uJ1A2H67qTm0RT" type="github">
  <diagram name="第 1 页" id="kS42SryP4LgQ7GfZgH7L">
    <mxGraphModel>
      <root>
        <mxCell id="0" />
        <mxCell id="1" parent="0" />
      </root>
    </mxGraphModel>
  </diagram>
</mxfile>
